HIERARCHY
ROOT Root
{
  OFFSET 0.0 0.0 0.0
  CHANNELS 6 Xposition Yposition Zposition Zrotation Yrotation Xrotation
  JOINT Hips
  {
    OFFSET 0.0 100.0 0.0
    CHANNELS 6 Xposition Yposition Zposition Zrotation Yrotation Xrotation
    JOINT Spine1
    {
      OFFSET 5.003913 -0.037094 -0.013727
      CHANNELS 3 Zrotation Yrotation Xrotation
      JOINT Spine2
      {
        OFFSET 7.125363 -1e-06 0.0
        CHANNELS 3 Zrotation Yrotation Xrotation
        JOINT Chest
        {
          OFFSET 7.594027 1e-06 0.0
          CHANNELS 3 Zrotation Yrotation Xrotation
          JOINT Neck1
          {
            OFFSET 26.313086 -0.460272 -0.181672
            CHANNELS 3 Zrotation Yrotation Xrotation
            JOINT Neck2
            {
              OFFSET 8.045911 0.0 0.0
              CHANNELS 3 Zrotation Yrotation Xrotation
              JOINT Head
              {
                OFFSET 6.432774 0.0 0.0
                CHANNELS 3 Zrotation Yrotation Xrotation
                JOINT HeadEnd
                {
                  OFFSET 16.169773 0.06451 0.00362
                  CHANNELS 3 Zrotation Yrotation Xrotation
                }
                JOINT Jaw
                {
                  OFFSET 0.108741 3.12938 0.002639
                  CHANNELS 3 Zrotation Yrotation Xrotation
                }
                JOINT LeftEye
                {
                  OFFSET 4.45173 8.166359 3.206392
                  CHANNELS 3 Zrotation Yrotation Xrotation
                }
                JOINT RightEye
                {
                  OFFSET 4.436895 8.135758 -3.222429
                  CHANNELS 3 Zrotation Yrotation Xrotation
                }
              }
            }
          }
          JOINT LeftShoulder
          {
            OFFSET 23.218927 5.195579 1.621656
            CHANNELS 3 Zrotation Yrotation Xrotation
            JOINT LeftArm
            {
              OFFSET 15.902118 2e-06 -2e-06
              CHANNELS 3 Zrotation Yrotation Xrotation
              JOINT LeftForeArm
              {
                OFFSET 28.739307 0.0 -1e-06
                CHANNELS 3 Zrotation Yrotation Xrotation
                JOINT LeftHand
                {
                  OFFSET 27.093981 -4e-06 0.0
                  CHANNELS 3 Zrotation Yrotation Xrotation
                  JOINT LeftHandThumb1
                  {
                    OFFSET 2.276781 3.380274 0.83384
                    CHANNELS 3 Zrotation Yrotation Xrotation
                    JOINT LeftHandThumb2
                    {
                      OFFSET 4.705309 -1e-06 -1e-06
                      CHANNELS 3 Zrotation Yrotation Xrotation
                      JOINT LeftHandThumb3
                      {
                        OFFSET 2.798515 0.0 3e-06
                        CHANNELS 3 Zrotation Yrotation Xrotation
                        JOINT LeftHandThumbEnd
                        {
                          OFFSET 3.180793 4e-06 -4e-06
                          CHANNELS 3 Zrotation Yrotation Xrotation
                        }
                      }
                    }
                  }
                  JOINT LeftHandIndex1
                  {
                    OFFSET 3.247786 2.352677 0.137192
                    CHANNELS 3 Zrotation Yrotation Xrotation
                    JOINT LeftHandIndex2
                    {
                      OFFSET 6.367095 1e-06 0.0
                      CHANNELS 3 Zrotation Yrotation Xrotation
                      JOINT LeftHandIndex3
                      {
                        OFFSET 3.662364 0.0 0.0
                        CHANNELS 3 Zrotation Yrotation Xrotation
                        JOINT LeftHandIndex4
                        {
                          OFFSET 2.329242 4e-06 -4e-06
                          CHANNELS 3 Zrotation Yrotation Xrotation
                          JOINT LeftHandIndexEnd
                          {
                            OFFSET 2.767823 1e-06 0.0
                            CHANNELS 3 Zrotation Yrotation Xrotation
                          }
                        }
                      }
                    }
                  }
                  JOINT LeftHandMiddle1
                  {
                    OFFSET 3.163612 0.945023 -0.406112
                    CHANNELS 3 Zrotation Yrotation Xrotation
                    JOINT LeftHandMiddle2
                    {
                      OFFSET 6.276789 3e-06 0.0
                      CHANNELS 3 Zrotation Yrotation Xrotation
                      JOINT LeftHandMiddle3
                      {
                        OFFSET 4.35652 -1e-06 4e-06
                        CHANNELS 3 Zrotation Yrotation Xrotation
                        JOINT LeftHandMiddle4
                        {
                          OFFSET 2.996877 0.0 8e-06
                          CHANNELS 3 Zrotation Yrotation Xrotation
                          JOINT LeftHandMiddleEnd
                          {
                            OFFSET 2.323256 3e-06 -4e-06
                            CHANNELS 3 Zrotation Yrotation Xrotation
                          }
                        }
                      }
                    }
                  }
                  JOINT LeftHandRing1
                  {
                    OFFSET 2.882606 -0.309162 0.107445
                    CHANNELS 3 Zrotation Yrotation Xrotation
                    JOINT LeftHandRing2
                    {
                      OFFSET 6.033198 0.0 4e-06
                      CHANNELS 3 Zrotation Yrotation Xrotation
                      JOINT LeftHandRing3
                      {
                        OFFSET 4.350578 3e-06 0.0
                        CHANNELS 3 Zrotation Yrotation Xrotation
                        JOINT LeftHandRing4
                        {
                          OFFSET 2.651321 2e-06 -7e-06
                          CHANNELS 3 Zrotation Yrotation Xrotation
                          JOINT LeftHandRingEnd
                          {
                            OFFSET 1.937663 1e-06 -4e-06
                            CHANNELS 3 Zrotation Yrotation Xrotation
                          }
                        }
                      }
                    }
                  }
                  JOINT LeftHandPinky1
                  {
                    OFFSET 2.865315 -1.525436 0.575687
                    CHANNELS 3 Zrotation Yrotation Xrotation
                    JOINT LeftHandPinky2
                    {
                      OFFSET 5.54936 1e-06 -8e-06
                      CHANNELS 3 Zrotation Yrotation Xrotation
                      JOINT LeftHandPinky3
                      {
                        OFFSET 3.070974 0.0 -4e-06
                        CHANNELS 3 Zrotation Yrotation Xrotation
                        JOINT LeftHandPinky4
                        {
                          OFFSET 1.549672 1e-06 0.0
                          CHANNELS 3 Zrotation Yrotation Xrotation
                          JOINT LeftHandPinkyEnd
                          {
                            OFFSET 1.952123 0.0 0.0
                            CHANNELS 3 Zrotation Yrotation Xrotation
                          }
                        }
                      }
                    }
                  }
                }
              }
            }
          }
          JOINT RightShoulder
          {
            OFFSET 23.161716 5.296122 -1.380114
            CHANNELS 3 Zrotation Yrotation Xrotation
            JOINT RightArm
            {
              OFFSET -16.027195 -2e-06 1.1e-05
              CHANNELS 3 Zrotation Yrotation Xrotation
              JOINT RightForeArm
              {
                OFFSET -28.736639 4e-06 2e-06
                CHANNELS 3 Zrotation Yrotation Xrotation
                JOINT RightHand
                {
                  OFFSET -27.133619 6e-06 0.0
                  CHANNELS 3 Zrotation Yrotation Xrotation
                  JOINT RightHandThumb1
                  {
                    OFFSET -2.274328 -3.351035 -0.83067
                    CHANNELS 3 Zrotation Yrotation Xrotation
                    JOINT RightHandThumb2
                    {
                      OFFSET -4.703594 -3e-06 2e-06
                      CHANNELS 3 Zrotation Yrotation Xrotation
                      JOINT RightHandThumb3
                      {
                        OFFSET -2.794935 -4e-06 -3e-06
                        CHANNELS 3 Zrotation Yrotation Xrotation
                        JOINT RightHandThumbEnd
                        {
                          OFFSET -3.183852 4e-06 1e-06
                          CHANNELS 3 Zrotation Yrotation Xrotation
                        }
                      }
                    }
                  }
                  JOINT RightHandIndex1
                  {
                    OFFSET -3.253496 -2.33755 -0.127667
                    CHANNELS 3 Zrotation Yrotation Xrotation
                    JOINT RightHandIndex2
                    {
                      OFFSET -6.344434 0.0 0.0
                      CHANNELS 3 Zrotation Yrotation Xrotation
                      JOINT RightHandIndex3
                      {
                        OFFSET -3.654871 0.0 -8e-06
                        CHANNELS 3 Zrotation Yrotation Xrotation
                        JOINT RightHandIndex4
                        {
                          OFFSET -2.327586 -1e-06 0.0
                          CHANNELS 3 Zrotation Yrotation Xrotation
                          JOINT RightHandIndexEnd
                          {
                            OFFSET -2.770001 3e-06 8e-06
                            CHANNELS 3 Zrotation Yrotation Xrotation
                          }
                        }
                      }
                    }
                  }
                  JOINT RightHandMiddle1
                  {
                    OFFSET -3.168223 -0.944764 0.411762
                    CHANNELS 3 Zrotation Yrotation Xrotation
                    JOINT RightHandMiddle2
                    {
                      OFFSET -6.266691 -1e-06 -4e-06
                      CHANNELS 3 Zrotation Yrotation Xrotation
                      JOINT RightHandMiddle3
                      {
                        OFFSET -4.348901 0.0 0.0
                        CHANNELS 3 Zrotation Yrotation Xrotation
                        JOINT RightHandMiddle4
                        {
                          OFFSET -3.00024 2e-06 -4e-06
                          CHANNELS 3 Zrotation Yrotation Xrotation
                          JOINT RightHandMiddleEnd
                          {
                            OFFSET -2.321477 -4e-06 -4e-06
                            CHANNELS 3 Zrotation Yrotation Xrotation
                          }
                        }
                      }
                    }
                  }
                  JOINT RightHandRing1
                  {
                    OFFSET -2.885654 0.293261 -0.119232
                    CHANNELS 3 Zrotation Yrotation Xrotation
                    JOINT RightHandRing2
                    {
                      OFFSET -6.032835 -1e-06 -4e-06
                      CHANNELS 3 Zrotation Yrotation Xrotation
                      JOINT RightHandRing3
                      {
                        OFFSET -4.33881 0.0 -4e-06
                        CHANNELS 3 Zrotation Yrotation Xrotation
                        JOINT RightHandRing4
                        {
                          OFFSET -2.654903 -4e-06 -4e-06
                          CHANNELS 3 Zrotation Yrotation Xrotation
                          JOINT RightHandRingEnd
                          {
                            OFFSET -1.935122 0.0 4e-06
                            CHANNELS 3 Zrotation Yrotation Xrotation
                          }
                        }
                      }
                    }
                  }
                  JOINT RightHandPinky1
                  {
                    OFFSET -2.866241 1.503904 -0.60527
                    CHANNELS 3 Zrotation Yrotation Xrotation
                    JOINT RightHandPinky2
                    {
                      OFFSET -5.553177 -2e-06 0.0
                      CHANNELS 3 Zrotation Yrotation Xrotation
                      JOINT RightHandPinky3
                      {
                        OFFSET -3.062664 -1e-06 -4e-06
                        CHANNELS 3 Zrotation Yrotation Xrotation
                        JOINT RightHandPinky4
                        {
                          OFFSET -1.546529 2e-06 4e-06
                          CHANNELS 3 Zrotation Yrotation Xrotation
                          JOINT RightHandPinkyEnd
                          {
                            OFFSET -1.952341 0.0 -4e-06
                            CHANNELS 3 Zrotation Yrotation Xrotation
                          }
                        }
                      }
                    }
                  }
                }
              }
            }
          }
        }
      }
    }
    JOINT LeftLeg
    {
      OFFSET -8.443107 2.567604 10.043214
      CHANNELS 3 Zrotation Yrotation Xrotation
      JOINT LeftShin
      {
        OFFSET 43.229198 1e-06 -1e-06
        CHANNELS 3 Zrotation Yrotation Xrotation
        JOINT LeftFoot
        {
          OFFSET 42.298611 1e-06 1e-06
          CHANNELS 3 Zrotation Yrotation Xrotation
          JOINT LeftToeBase
          {
            OFFSET 14.165858 1e-06 0.0
            CHANNELS 3 Zrotation Yrotation Xrotation
            JOINT LeftToeEnd
            {
              OFFSET 6.7141 -0.234461 0.0
              CHANNELS 3 Zrotation Yrotation Xrotation
            }
          }
        }
      }
    }
    JOINT RightLeg
    {
      OFFSET -8.303923 2.592729 -10.047278
      CHANNELS 3 Zrotation Yrotation Xrotation
      JOINT RightShin
      {
        OFFSET -43.369682 0.0 1e-06
        CHANNELS 3 Zrotation Yrotation Xrotation
        JOINT RightFoot
        {
          OFFSET -42.260784 4e-06 2e-06
          CHANNELS 3 Zrotation Yrotation Xrotation
          JOINT RightToeBase
          {
            OFFSET -14.222245 -2e-06 -1e-06
            CHANNELS 3 Zrotation Yrotation Xrotation
            JOINT RightToeEnd
            {
              OFFSET -6.660062 0.232574 -2e-06
              CHANNELS 3 Zrotation Yrotation Xrotation
            }
          }
        }
      }
    }
  }
}
MOTION
Frames: 5
Frame Time: 0.03333333333333333
0.0 0.0 0.0 0.0 -0.0 0.0 -26.503628 47.839348 111.276398 105.865257 -57.02013 74.002594 10.663552 -2.904269 -0.346581 -6.753272 -1.274118 1.339541 18.173075 -4.914432 -1.753249 22.267357 4.093422 2.942005 -2.619738 -0.147927 1.621493 -21.785616 2.218613 1.650214 6e-06 1e-06 -0.0 -0.208621 -0.049246 0.042141 -0.398236 0.040569 -0.008102 -0.45655 -0.137539 0.092427 -117.915825 -88.276711 130.281158 73.552406 -19.989676 -25.082853 24.580185 -0.672121 -0.142765 38.427269 75.242615 42.953941 17.636631 -26.322727 52.411179 -19.466658 -14.395596 29.410385 1e-06 -8.774821 -4e-06 16.017994 -18.322042 6.000833 -0.609779 -1.795657 -3.889327 -4.807086 -11.046807 -2.93785 5e-06 -20.976015 -0.0 -5.01997 -25.033556 -4.031882 6e-06 0.0 1e-06 -10.634533 -5.686968 -3.565588 10.573272 -17.922947 -3.113899 3e-06 -13.821205 1e-06 -0.501777 -31.181501 -4.027016 -11.006704 -59.296677 8.000748 -13.982712 -7.150197 -2.875042 13.772728 -8.401489 -3.218241 0.347734 -34.211536 0.771655 -0.963028 -17.733366 2.621019 0.0 -0.0 -1e-06 -17.346416 -20.095213 -4.201782 21.757557 -1.638375 3.86643 2e-06 -6.338824 1e-06 -1.69759 -22.591734 -6.194005 1e-06 -3e-06 -1e-06 -179.677505 -64.932571 0.607964 84.23835 -11.135707 -56.897076 14.963211 -0.122771 -0.081649 14.41034 64.43853 17.4965 22.182117 -20.375895 49.933319 -16.701809 -16.743526 28.476528 -1e-06 -12.690602 -1e-06 16.440069 -18.124374 2.67639 -0.105919 -1.513857 -4.275881 -5.039039 -5.612871 -2.953556 5e-06 -11.020525 -3e-06 -6.111299 -15.89533 -3.840472 -2e-06 -0.0 1e-06 -10.283371 -5.680288 -4.341838 11.028296 -11.302404 -2.372633 -1.384269 -14.238577 -6.320123 -0.625439 -26.924187 -3.827603 -3.595227 -50.096539 -4.427469 -13.708526 -7.363478 -3.720938 18.14115 -14.052737 -3.242673 5e-06 -18.787271 -3e-06 -0.429712 -8.456041 2.555504 0.0 -1e-06 1e-06 -15.923536 -20.094482 -5.473585 30.41921 -7.190827 1.735927 4e-06 -8.162925 0.0 -1.861903 -22.861469 -6.167942 0.0 -4e-06 -1e-06 100.710861 -2.037808 3.244304 125.603027 1.111394 0.864577 -63.486198 16.986036 3.816634 -12.110707 1.157534 1.702886 -0.999999 -0.0 0.0 -28.858854 -0.878353 3.638058 67.517014 0.109524 -0.529912 -32.909 0.987032 9.049329 -5.032953 0.798287 1.475941 -1.000003 -0.0 0.0 
0.0 0.0 0.0 0.0 -0.0 0.0 -26.425573 47.496449 113.802567 106.771034 -57.348011 73.676727 10.359547 -2.816651 -0.401464 -6.930198 -1.147649 1.006644 17.660648 -4.690107 -2.046612 22.951157 4.722906 3.043929 -2.57034 -0.181754 1.726046 -22.583635 2.035574 1.957574 6e-06 2e-06 -0.0 -0.204184 0.030651 0.02438 -0.406173 0.126149 -0.027638 -0.433995 -0.06634 0.073625 -128.050156 -87.790962 140.576035 70.796776 -21.700628 -24.774122 28.487654 -0.719754 -0.334639 41.544472 74.23632 47.57795 17.63662 -26.322725 52.411201 -19.466658 -14.395597 29.410389 -2e-06 -8.77482 -2e-06 16.133949 -18.204603 5.967429 -0.609776 -1.795653 -3.889327 -4.807088 -11.046809 -2.937851 4e-06 -20.976015 -1e-06 -5.019969 -25.033556 -4.031883 6e-06 0.0 -1e-06 -10.634532 -5.68697 -3.565588 10.573271 -17.922945 -3.113902 3e-06 -13.821203 -0.0 -0.501776 -31.181501 -4.027017 -10.715543 -59.249577 7.737534 -13.982708 -7.150196 -2.875043 13.772726 -8.40149 -3.218242 0.347736 -34.21154 0.771653 -0.963029 -17.733366 2.621021 -0.0 -0.0 0.0 -17.346415 -20.095213 -4.201784 21.757555 -1.638377 3.866427 2e-06 -6.338823 1e-06 -1.69759 -22.59174 -6.194007 0.0 -4e-06 -1e-06 176.72261 -64.82093 3.481155 87.228462 -13.197129 -55.928295 15.336034 -0.212303 -0.019925 16.511269 66.200233 20.805321 22.182112 -20.375891 49.933323 -16.701817 -16.743525 28.476536 -3e-06 -12.690601 2e-06 16.291327 -18.032091 2.681099 -0.105921 -1.513855 -4.275882 -5.03904 -5.612873 -2.953557 3e-06 -11.020525 -5e-06 -6.111296 -15.895334 -3.840472 -2e-06 -1e-06 1e-06 -10.283371 -5.680288 -4.341839 11.028295 -11.302405 -2.372634 -1.384269 -14.238583 -6.320122 -0.625434 -26.924187 -3.827607 -3.488283 -49.916065 -4.502418 -13.708526 -7.363475 -3.720941 18.141148 -14.052739 -3.242674 7e-06 -18.78727 -3e-06 -0.429712 -8.456042 2.555503 0.0 -1e-06 1e-06 -15.923538 -20.094482 -5.473588 30.41921 -7.190827 1.735927 5e-06 -8.162921 -2e-06 -1.861902 -22.861469 -6.167942 0.0 -3e-06 -1e-06 102.533157 -0.796478 2.893497 123.993752 1.223766 0.896478 -61.629803 16.896084 4.606971 -9.781551 1.155475 1.699863 -0.999996 1e-06 0.0 -26.241493 -1.478621 4.268743 63.075642 0.143613 -0.666537 -30.487732 2.40229 8.884067 -4.722385 0.75505 1.466429 -1.000002 1e-06 1e-06 
0.0 0.0 0.0 0.0 -0.0 0.0 -26.416269 47.323288 116.181648 107.430412 -58.072708 73.63987 10.028895 -2.644456 -0.369596 -7.150979 -1.128748 0.692342 17.21789 -4.266526 -2.26496 23.2778 5.34831 3.116378 -2.597559 -0.382697 1.811171 -23.356865 2.005508 2.080163 5e-06 -0.0 -0.0 -0.199059 0.073112 0.012271 -0.399494 0.141453 -0.018508 -0.443701 0.006749 0.041838 -126.763145 -87.675606 139.486847 67.833374 -22.156139 -24.131639 33.67057 -0.571477 -0.457019 41.441048 72.539589 50.169979 17.636631 -26.322731 52.411201 -19.466658 -14.395597 29.410393 -1e-06 -8.774822 -3e-06 16.435173 -18.255072 5.873442 -0.609777 -1.795654 -3.889328 -4.80709 -11.046809 -2.937852 5e-06 -20.976015 -1e-06 -5.019969 -25.033556 -4.031879 6e-06 0.0 -0.0 -10.634537 -5.686973 -3.565587 10.573275 -17.922951 -3.113902 5e-06 -13.821205 -0.0 -0.501775 -31.181498 -4.027018 -10.70263 -59.342106 7.59499 -13.982716 -7.150199 -2.875042 13.772731 -8.401492 -3.218242 0.347735 -34.211544 0.771654 -0.963029 -17.733368 2.62102 0.0 0.0 -0.0 -17.346418 -20.095219 -4.201783 21.757557 -1.638374 3.866428 1e-06 -6.338824 -0.0 -1.697588 -22.591743 -6.194006 0.0 -3e-06 -2e-06 173.674957 -64.653328 6.171923 89.565613 -14.664674 -55.261909 15.786418 -0.292534 0.070886 18.672228 67.70919 24.107182 22.182106 -20.375895 49.933319 -16.701811 -16.74353 28.476532 -1e-06 -12.6906 0.0 16.193659 -18.111746 2.708292 -0.105921 -1.513855 -4.275881 -5.039039 -5.612868 -2.953555 3e-06 -11.02052 -3e-06 -6.111296 -15.895326 -3.840471 -1e-06 -0.0 2e-06 -10.283369 -5.680286 -4.341838 11.02829 -11.302402 -2.372634 -1.384269 -14.238579 -6.320119 -0.625436 -26.924183 -3.827603 -3.509136 -49.839615 -4.550204 -13.708525 -7.363473 -3.720939 18.14115 -14.052738 -3.242675 7e-06 -18.787266 -2e-06 -0.429712 -8.456041 2.555504 -1e-06 0.0 2e-06 -15.923538 -20.094477 -5.473583 30.41921 -7.190824 1.735927 3e-06 -8.162922 -0.0 -1.861904 -22.861465 -6.16794 1e-06 -3e-06 -2e-06 103.827171 0.208021 2.908864 122.546051 1.275448 0.844112 -60.716225 16.191477 4.937463 -8.642157 1.172868 1.72538 -0.999999 -0.0 0.0 -24.800802 -1.802273 4.754463 60.138729 0.337635 -0.867483 -29.757362 3.711923 8.723626 -3.978219 0.735138 1.466442 -1.000001 0.0 0.0 
0.0 0.0 0.0 0.0 -0.0 0.0 -26.475677 47.275452 118.250954 107.811096 -58.851234 73.733444 9.795784 -2.463451 -0.35247 -7.179968 -0.98952 0.516593 16.755178 -3.926163 -2.485515 23.124624 5.826522 3.260583 -2.614788 -0.752789 1.993146 -23.812132 2.263076 2.124943 7e-06 1e-06 -0.0 -0.176785 0.063049 0.011473 -0.316804 0.123325 0.016702 -0.369159 0.010518 0.002738 -113.533424 -87.584679 126.054718 65.188293 -21.219343 -23.735832 39.947563 -0.580049 -0.486236 39.595806 69.945045 52.14682 17.636618 -26.322731 52.411194 -19.466656 -14.395597 29.410385 -1e-06 -8.774817 -0.0 16.741785 -18.337484 5.729099 -0.609777 -1.795652 -3.889327 -4.807086 -11.04681 -2.93785 4e-06 -20.976015 -1e-06 -5.019969 -25.033554 -4.031879 6e-06 0.0 -1e-06 -10.634531 -5.686968 -3.565586 10.573272 -17.922947 -3.1139 2e-06 -13.821209 3e-06 -0.501778 -31.181501 -4.027014 -11.162684 -59.456505 7.578489 -13.982708 -7.150197 -2.875041 13.772724 -8.401489 -3.218242 0.347733 -34.211544 0.771656 -0.96303 -17.733368 2.621019 0.0 0.0 0.0 -17.346413 -20.095213 -4.20178 21.757551 -1.638376 3.866425 0.0 -6.338823 2e-06 -1.697589 -22.59174 -6.194005 -0.0 -4e-06 -1e-06 171.612656 -64.591003 8.112751 91.312943 -15.471323 -53.772545 15.808205 -0.229598 0.166211 19.433231 69.244484 25.726412 22.182117 -20.375898 49.933319 -16.701809 -16.743526 28.476528 -2e-06 -12.6906 -2e-06 16.185766 -18.251837 2.759376 -0.105922 -1.513856 -4.275881 -5.039037 -5.612869 -2.953558 3e-06 -11.020527 -1e-06 -6.111298 -15.895334 -3.840469 -1e-06 -2e-06 -0.0 -10.283371 -5.680288 -4.341837 11.028294 -11.302402 -2.372633 -1.384267 -14.238583 -6.32012 -0.625438 -26.924187 -3.827602 -3.62341 -49.681187 -4.593014 -13.708524 -7.363477 -3.720939 18.14115 -14.052739 -3.242675 5e-06 -18.78727 -3e-06 -0.429711 -8.456039 2.555505 1e-06 0.0 1e-06 -15.923536 -20.094482 -5.473585 30.41921 -7.190826 1.735928 3e-06 -8.162925 -1e-06 -1.861903 -22.861473 -6.167943 2e-06 -1e-06 -1e-06 104.988091 0.958113 3.367034 120.79731 1.324461 0.779878 -59.982956 16.300331 4.738682 -8.375206 1.206572 1.749591 -0.999997 0.0 -0.0 -24.486053 -2.02555 5.057622 59.32188 0.630026 -0.9734 -30.923996 4.931904 8.814333 -3.696523 0.732424 1.466435 -1.000003 0.0 1e-06 
0.0 0.0 0.0 0.0 -0.0 0.0 -26.510054 47.61438 120.038513 108.033524 -59.446373 73.604103 9.707556 -2.171417 -0.280012 -7.285846 -1.029821 0.386758 16.448994 -3.546942 -2.360187 22.802248 5.58444 3.118447 -2.687411 -0.457597 2.549801 -23.984653 2.208156 2.175805 7e-06 0.0 -1e-06 -0.179137 0.125349 0.008718 -0.342353 0.182019 0.012479 -0.407167 0.077488 0.005032 -96.24688 -87.760254 108.579521 63.047325 -18.259016 -24.082216 46.555603 -0.752405 -0.576246 37.145233 66.569214 54.391861 17.636625 -26.322729 52.41119 -19.466656 -14.3956 29.410389 0.0 -8.774822 -2e-06 17.461046 -18.332067 5.696187 -0.609776 -1.795654 -3.889328 -4.807088 -11.046808 -2.937851 5e-06 -20.976013 1e-06 -5.019969 -25.033552 -4.031881 6e-06 -1e-06 0.0 -10.634534 -5.686968 -3.565587 10.573275 -17.922947 -3.113901 3e-06 -13.821209 2e-06 -0.501777 -31.181505 -4.027016 -10.871126 -59.931808 7.456567 -13.982714 -7.150198 -2.875041 13.77273 -8.401492 -3.218241 0.347734 -34.211544 0.771655 -0.963028 -17.733364 2.62102 -0.0 -0.0 1e-06 -17.346416 -20.095211 -4.201782 21.757557 -1.638376 3.866426 2e-06 -6.338822 1e-06 -1.697589 -22.591736 -6.194006 -0.0 -4e-06 0.0 170.877243 -64.646065 8.926601 92.32962 -16.032701 -53.131836 15.625567 -0.290422 0.267507 21.46035 70.047913 28.570883 22.182117 -20.375895 49.933319 -16.701813 -16.74353 28.476532 -1e-06 -12.690605 -2e-06 16.066212 -18.211533 2.802881 -0.105919 -1.513855 -4.275882 -5.039041 -5.612871 -2.953557 3e-06 -11.020524 -2e-06 -6.111295 -15.895329 -3.840473 1e-06 -0.0 -1e-06 -10.283371 -5.680288 -4.341838 11.028295 -11.302404 -2.372633 -1.38427 -14.238579 -6.320122 -0.625438 -26.924183 -3.827599 -3.632649 -49.659924 -4.58817 -13.708524 -7.363475 -3.720938 18.14115 -14.052735 -3.242673 4e-06 -18.78727 -1e-06 -0.429712 -8.456043 2.555504 -1e-06 0.0 1e-06 -15.923536 -20.094482 -5.473585 30.41921 -7.190826 1.735929 2e-06 -8.162927 -1e-06 -1.861904 -22.861469 -6.16794 1e-06 -2e-06 -1e-06 106.201599 1.312335 3.549167 119.123161 1.123634 0.687859 -60.0448 15.84889 3.689461 -8.373325 1.223726 1.736878 -0.999998 0.0 0.0 -25.487417 -2.200858 4.533965 60.731678 0.429903 -0.805621 -33.372086 6.370061 9.641088 -2.876765 0.68635 1.447036 -1.000005 -0.0 0.0 
